<svg xmlns="http://www.w3.org/2000/svg" version="1.1" xmlns:xlink="http://www.w3.org/1999/xlink" xmlns:svgjs="http://svgjs.dev/svgjs" width="1440" height="560" preserveAspectRatio="none" viewBox="0 0 1440 560"><g mask="url(&quot;#SvgjsMask1002&quot;)" fill="none"><path d="M836.6 567.06C955.37 549.78 986.09 293.13 1213.07 269.12 1440.05 245.11 1481.01 58.44 1589.54 50.72" stroke="rgba(140, 51, 194, 0.58)" stroke-width="2"></path><path d="M625.56 596.48C725.82 589.9 692.49 407.74 976 399.73 1259.51 391.72 1492.53 173.03 1676.89 170.13" stroke="rgba(140, 51, 194, 0.58)" stroke-width="2"></path><path d="M253.59 571.97C458.13 540.95 560.32 57.01 897.62 52.38 1234.92 47.75 1377.98 169.5 1541.65 169.98" stroke="rgba(140, 51, 194, 0.58)" stroke-width="2"></path><path d="M565.51 660.95C705.35 642.74 756.3 340.44 1016.33 321.88 1276.37 303.32 1345.4 140.62 1467.16 137.08" stroke="rgba(140, 51, 194, 0.58)" stroke-width="2"></path><path d="M544.37 650.96C708.7 613.54 777.85 179.27 1024.53 177.74 1271.2 176.21 1369.94 417.09 1504.68 424.14" stroke="rgba(140, 51, 194, 0.58)" stroke-width="2"></path></g><defs><mask id="SvgjsMask1002"><rect width="1440" height="560" fill="#ffffff"></rect></mask></defs></svg>