<svg xmlns="http://www.w3.org/2000/svg" version="1.1" xmlns:xlink="http://www.w3.org/1999/xlink" xmlns:svgjs="http://svgjs.dev/svgjs" width="1440" height="560" preserveAspectRatio="none" viewBox="0 0 1440 560"><g mask="url(&quot;#SvgjsMask1019&quot;)" fill="none"><path d="M25.31 408.77L68.61 433.77L68.61 483.77L25.31 508.77L-17.99 483.77L-17.99 433.77zM155.22 333.77L198.52 358.77L198.52 408.77L155.22 433.77L111.92 408.77L111.92 358.77zM111.92 408.77L155.22 433.77L155.22 483.77L111.92 508.77L68.61 483.77L68.61 433.77zM241.82 33.77L285.13 58.77L285.13 108.77L241.82 133.77L198.52 108.77L198.52 58.77zM241.82 183.77L285.13 208.77L285.13 258.77L241.82 283.77L198.52 258.77L198.52 208.77zM241.82 333.77L285.13 358.77L285.13 408.77L241.82 433.77L198.52 408.77L198.52 358.77zM328.43 33.77L371.73 58.77L371.73 108.77L328.43 133.77L285.13 108.77L285.13 58.77zM285.13 408.77L328.43 433.77L328.43 483.77L285.13 508.77L241.82 483.77L241.82 433.77zM371.73 258.77L415.03 283.77L415.03 333.77L371.73 358.77L328.43 333.77L328.43 283.77zM544.94 108.77L588.24 133.77L588.24 183.77L544.94 208.77L501.64 183.77L501.64 133.77zM588.24 183.77L631.54 208.77L631.54 258.77L588.24 283.77L544.94 258.77L544.94 208.77zM544.94 258.77L588.24 283.77L588.24 333.77L544.94 358.77L501.64 333.77L501.64 283.77zM588.24 483.77L631.54 508.77L631.54 558.77L588.24 583.77L544.94 558.77L544.94 508.77zM631.54 408.77L674.85 433.77L674.85 483.77L631.54 508.77L588.24 483.77L588.24 433.77zM718.15 108.77L761.45 133.77L761.45 183.77L718.15 208.77L674.85 183.77L674.85 133.77zM848.06 183.77L891.36 208.77L891.36 258.77L848.06 283.77L804.75 258.77L804.75 208.77zM804.75 408.77L848.06 433.77L848.06 483.77L804.75 508.77L761.45 483.77L761.45 433.77zM891.36 108.77L934.66 133.77L934.66 183.77L891.36 208.77L848.06 183.77L848.06 133.77zM934.66 183.77L977.97 208.77L977.97 258.77L934.66 283.77L891.36 258.77L891.36 208.77zM977.97 108.77L1021.27 133.77L1021.27 183.77L977.97 208.77L934.66 183.77L934.66 133.77zM1107.87 183.77L1151.17 208.77L1151.17 258.77L1107.87 283.77L1064.57 258.77L1064.57 208.77zM1064.57 258.77L1107.87 283.77L1107.87 333.77L1064.57 358.77L1021.27 333.77L1021.27 283.77zM1107.87 483.77L1151.17 508.77L1151.17 558.77L1107.87 583.77L1064.57 558.77L1064.57 508.77zM1237.78 -41.23L1281.08 -16.23L1281.08 33.77L1237.78 58.77L1194.48 33.77L1194.48 -16.23zM1281.08 33.77L1324.38 58.77L1324.38 108.77L1281.08 133.77L1237.78 108.77L1237.78 58.77zM1237.78 258.77L1281.08 283.77L1281.08 333.77L1237.78 358.77L1194.48 333.77L1194.48 283.77zM1324.38 108.77L1367.69 133.77L1367.69 183.77L1324.38 208.77L1281.08 183.77L1281.08 133.77zM1367.69 483.77L1410.99 508.77L1410.99 558.77L1367.69 583.77L1324.38 558.77L1324.38 508.77zM1410.99 258.77L1454.29 283.77L1454.29 333.77L1410.99 358.77L1367.69 333.77L1367.69 283.77z" stroke="rgba(86, 6, 156, 0.93)" stroke-width="2"></path></g><defs><mask id="SvgjsMask1019"><rect width="1440" height="560" fill="#ffffff"></rect></mask></defs></svg>